<?xml version="1.0" encoding="UTF-8"?>
<svg width="16px" height="16px" viewBox="0 0 16 16" version="1.1" xmlns="http://www.w3.org/2000/svg" xmlns:xlink="http://www.w3.org/1999/xlink">
    <!-- Generator: Sketch 52.5 (67469) - http://www.bohemiancoding.com/sketch -->
    <title>转出icon</title>
    <desc>Created with Sketch.</desc>
    <g id="页面-1" stroke="none" stroke-width="1" fill="none" fill-rule="evenodd">
        <g id="浏览器-Address" transform="translate(-28.000000, -1056.000000)">
            <g id="Group-15-Copy" transform="translate(18.000000, 912.000000)">
                <g id="Group-12" transform="translate(9.000000, 116.000000)">
                    <g id="转入icon" transform="translate(9.000000, 36.000000) rotate(90.000000) translate(-9.000000, -36.000000) translate(1.000000, 28.000000)">
                        <circle id="Oval-10" fill="#FFDAD3" transform="translate(8.000000, 8.000000) scale(-1, 1) rotate(90.000000) translate(-8.000000, -8.000000) " cx="8" cy="8" r="8"></circle>
                        <path d="M12.1741433,9.10966191 C12.5345448,8.79368733 12.5345448,8.28139608 12.1741433,7.9654215 L11.8734396,7.70178569 C11.5131435,7.38571864 10.9287172,7.38571864 10.5683157,7.70169322 L8.88888889,9.21212121 L8.88888889,4.36363636 C8.88888889,3.91681483 8.72200938,3.55555556 8.21236346,3.55555556 L7.78509201,3.55555556 C7.27544608,3.55555556 7.11111111,3.91681483 7.11111111,4.36363636 L7.11111111,9.21212121 L5.43177663,7.71796818 C5.07137512,7.40199359 4.48705425,7.40190112 4.12654726,7.71787571 L3.82594898,7.98262117 C3.46544199,8.29859575 3.46544199,8.810887 3.82584351,9.12686158 L7.33946824,12.2074519 C7.69986976,12.5234265 8.28419062,12.5234265 8.64459214,12.2075444 C8.86685908,12.0118134 8.98291462,11.9088928 8.99275878,11.8987826 L12.1741433,9.10966191 Z" id="Fill-1复制" fill="#FF4521" transform="translate(8.000000, 8.000000) scale(-1, 1) rotate(-90.000000) translate(-8.000000, -8.000000) "></path>
                    </g>
                </g>
            </g>
        </g>
    </g>
</svg>