<?xml version="1.0" encoding="UTF-8"?>
<svg width="21px" height="20px" viewBox="0 0 21 20" version="1.1" xmlns="http://www.w3.org/2000/svg" xmlns:xlink="http://www.w3.org/1999/xlink">
    <!-- Generator: Sketch 52.5 (67469) - http://www.bohemiancoding.com/sketch -->
    <title>Back</title>
    <desc>Created with Sketch.</desc>
    <g id="页面-1" stroke="none" stroke-width="1" fill="none" fill-rule="evenodd">
        <g id="浏览器-Block" transform="translate(-15.000000, -85.000000)" fill="#00B000">
            <g id="顶部" transform="translate(0.000000, 70.000000)">
                <g id="顶部导航">
                    <path d="M20.0576118,21.5428932 L20.0576118,29.986544 C20.0576118,30.5388288 19.6098966,30.986544 19.0576118,30.986544 C18.5053271,30.986544 18.0576118,30.5388288 18.0576118,29.986544 L18.0576118,18.986544 C18.0576118,18.4342593 18.5053271,17.986544 19.0576118,17.986544 L31.0576118,17.986544 C31.6098966,17.986544 32.0576118,18.4342593 32.0576118,18.986544 C32.0576118,19.5388288 31.6098966,19.986544 31.0576118,19.986544 L21.3296898,19.986544 L32.2855339,30.9423882 C32.6760582,31.3329124 32.6760582,31.9660774 32.2855339,32.3566017 C31.8950096,32.747126 31.2618446,32.747126 30.8713203,32.3566017 L20.0576118,21.5428932 Z" id="Back" transform="translate(25.318019, 25.318019) rotate(-45.000000) translate(-25.318019, -25.318019) "></path>
                </g>
            </g>
        </g>
    </g>
</svg>