<?xml version="1.0" encoding="UTF-8"?>
<svg width="63px" height="47px" viewBox="0 0 63 47" version="1.1" xmlns="http://www.w3.org/2000/svg" xmlns:xlink="http://www.w3.org/1999/xlink">
    <!-- Generator: Sketch 52.5 (67469) - http://www.bohemiancoding.com/sketch -->
    <title>Page 1</title>
    <desc>Created with Sketch.</desc>
    <defs>
        <polygon id="path-1" points="0 46.1250065 62.2802581 46.1250065 62.2802581 -0.000412903226 0 -0.000412903226"></polygon>
    </defs>
    <g id="页面-1" stroke="none" stroke-width="1" fill="none" fill-rule="evenodd">
        <g id="浏览器-Address" transform="translate(-156.000000, -338.000000)">
            <g id="Page-1" transform="translate(156.000000, 338.000000)">
                <path d="M3.48304516,45.5242323 C1.92227097,45.5242323 0.660851613,44.2648774 0.660851613,42.7020387 L0.660851613,1.38074839 C0.660851613,0.961651613 1.02214194,0.60036129 1.44123871,0.60036129 L34.1720774,0.60036129 C34.5932387,0.60036129 34.954529,0.961651613 34.954529,1.38074839 L34.954529,39.8179097" id="Fill-1" fill="#FFFFFF"></path>
                <path d="M3.48304516,46.1250065 C1.56098065,46.1250065 0.000206451613,44.5621677 0.000206451613,42.6421677 L0.000206451613,1.38074839 C0.000206451613,0.660232258 0.600980645,-0.000412903226 1.38136774,-0.000412903226 L34.114271,-0.000412903226 C34.8347871,-0.000412903226 35.4954323,0.60036129 35.4954323,1.38074839 L35.4954323,39.8179097 L34.2938839,39.8179097 L34.2938839,1.38074839 C34.2938839,1.32087742 34.2340129,1.20113548 34.114271,1.20113548 L1.38136774,1.20113548 C1.32149677,1.20113548 1.20175484,1.26100645 1.20175484,1.38074839 L1.20175484,42.6421677 C1.20175484,43.9035871 2.22162581,44.9234581 3.48304516,44.9234581 L3.48304516,46.1250065 Z" id="Fill-3" fill="#CCCCCC"></path>
                <path d="M3.48304516,45.5242323 C5.04381935,45.5242323 6.36510968,44.2648774 6.36510968,42.7020387 L6.36510968,39.8179097 L38.7367226,39.8179097 C38.7367226,42.9415226 36.1540129,45.5242323 33.0324645,45.5242323 L3.48304516,45.5242323 Z" id="Fill-5" fill="#F2F2F2"></path>
                <path d="M6.06575484,44.9234581 L32.9725935,44.9234581 C35.5532387,44.9234581 37.7168516,42.9415226 38.018271,40.4186839 L6.9060129,40.4186839 L6.9060129,42.7020387 C6.9060129,43.5422968 6.60665806,44.3226839 6.06575484,44.9234581 M32.9725935,46.1250065 L3.48304516,46.1250065 L3.48304516,44.9234581 C4.74446452,44.9234581 5.76433548,43.9035871 5.76433548,42.6421677 L5.76433548,39.1572645 L39.3374968,39.1572645 L39.3374968,39.7580387 C39.2776258,43.3028129 36.4554323,46.1250065 32.9725935,46.1250065" id="Fill-7" fill="#CCCCCC"></path>
                <mask id="mask-2" fill="white">
                    <use xlink:href="#path-1"></use>
                </mask>
                <g id="Clip-10"></g>
                <polygon id="Fill-9" fill="#F2F2F2" mask="url(#mask-2)" points="4.86606452 10.991071 30.7509677 10.991071 30.7509677 5.46642581 4.86606452 5.46642581"></polygon>
                <path d="M19.1585032,30.2701419 L5.34482581,30.2701419 C4.9856,30.2701419 4.74405161,30.0306581 4.74405161,29.6693677 C4.74405161,29.3080774 4.9856,29.0685935 5.34482581,29.0685935 L19.1585032,29.0685935 C19.5197935,29.0685935 19.7592774,29.3080774 19.7592774,29.6693677 C19.7592774,30.0306581 19.5197935,30.2701419 19.1585032,30.2701419 M16.1546323,25.4660129 L5.34482581,25.4660129 C4.9856,25.4660129 4.74405161,25.2244645 4.74405161,24.8631742 C4.74405161,24.5039484 4.9856,24.2644645 5.34482581,24.2644645 L16.1546323,24.2644645 C16.5159226,24.2644645 16.7554065,24.5039484 16.7554065,24.8631742 C16.7554065,25.2244645 16.5159226,25.4660129 16.1546323,25.4660129 M20.3600516,20.6598194 L5.34482581,20.6598194 C4.9856,20.6598194 4.74405161,20.4203355 4.74405161,20.0590452 C4.74405161,19.6998194 4.9856,19.458271 5.34482581,19.458271 L20.3600516,19.458271 C20.7192774,19.458271 20.9608258,19.6998194 20.9608258,20.0590452 C20.9608258,20.4203355 20.7192774,20.6598194 20.3600516,20.6598194 M24.5634065,15.8556903 L5.34482581,15.8556903 C4.9856,15.8556903 4.74405161,15.6141419 4.74405161,15.2549161 C4.74405161,14.8936258 4.9856,14.6541419 5.34482581,14.6541419 L24.5634065,14.6541419 C24.9246968,14.6541419 25.1641806,14.8936258 25.1641806,15.2549161 C25.1641806,15.6141419 24.9246968,15.8556903 24.5634065,15.8556903" id="Fill-11" fill="#CCCCCC" mask="url(#mask-2)"></path>
                <path d="M24.2039742,25.7661935 C24.2039742,31.2722581 28.6674581,35.7357419 34.1735226,35.7357419 C39.6795871,35.7357419 44.143071,31.2722581 44.143071,25.7661935 C44.143071,20.260129 39.6795871,15.7945806 34.1735226,15.7945806 C28.6674581,15.7945806 24.2039742,20.260129 24.2039742,25.7661935" id="Fill-12" fill="#FFFFFF" mask="url(#mask-2)"></path>
                <path d="M29.5485935,31.1108129 C29.3689806,31.1108129 29.2471742,31.0509419 29.1274323,30.9291355 C26.2453677,28.1668129 26.1854968,23.5422968 28.9478194,20.7201032 C29.1893677,20.4806194 29.5485935,20.4806194 29.7880774,20.7201032 C30.0296258,20.9595871 30.0296258,21.3208774 29.7880774,21.5624258 C27.4469161,23.9634581 27.5666581,27.7477161 29.9098839,30.0888774 C30.1493677,30.3283613 30.1493677,30.6896516 29.9098839,30.9291355 C29.8500129,31.0509419 29.7282065,31.1108129 29.5485935,31.1108129" id="Fill-13" fill="#CCCCCC" mask="url(#mask-2)"></path>
                <path d="M24.8037161,25.7661935 C24.8037161,20.6007742 29.0091355,16.3953548 34.1724903,16.3953548 C39.3379097,16.3953548 43.5412645,20.6007742 43.5412645,25.7661935 C43.5412645,30.9295484 39.3379097,35.1349677 34.1724903,35.1349677 C29.0091355,35.1349677 24.8037161,30.9295484 24.8037161,25.7661935 M52.1296516,42.6415484 L45.6450065,36.1548387 C45.3435871,35.8554839 44.8646194,35.7336774 44.503329,35.8554839 L41.8008774,33.1530323 C43.663071,31.2289032 44.8047484,28.6482581 44.8047484,25.824 C44.8047484,20 40.0604903,15.2557419 34.2323613,15.2557419 C28.4083613,15.2557419 23.6641032,20 23.6641032,25.824 C23.6641032,31.652129 28.4083613,36.3943226 34.2323613,36.3943226 C36.7552,36.3943226 39.1582968,35.4941935 40.9606194,33.9932903 L43.7229419,36.7556129 C43.6011355,37.1747097 43.7229419,37.595871 44.0243613,37.8972903 L50.5090065,44.384 C50.7484903,44.6234839 51.0499097,44.7432258 51.3492645,44.7432258 C51.6506839,44.7432258 51.9500387,44.6234839 52.1915871,44.384 C52.6127484,43.8430968 52.6127484,43.1225806 52.1296516,42.6415484" id="Fill-14" fill="#CCCCCC" mask="url(#mask-2)"></path>
                <path d="M59.7574194,13.7529806 L50.2689032,13.7529806 L45.9458065,16.6969806 L46.1233548,13.7529806 L43.0018065,13.7529806 C41.92,13.7529806 41.0797419,12.9127226 41.0797419,11.8309161 L41.0797419,7.32820645 C41.0797419,6.2464 41.92,5.40614194 43.0018065,5.40614194 L59.6996129,5.40614194 C60.7793548,5.40614194 61.6196129,6.2464 61.6196129,7.32820645 L61.6196129,11.8309161 C61.6815484,12.9127226 60.8392258,13.7529806 59.7574194,13.7529806" id="Fill-15" fill="#F2F2F2" mask="url(#mask-2)"></path>
                <path d="M43.0616774,6.06554839 C42.3411613,6.06554839 41.7403871,6.66632258 41.7403871,7.38683871 L41.7403871,11.8916129 C41.7403871,12.612129 42.3411613,13.2129032 43.0616774,13.2129032 L46.8459355,13.2129032 L46.6642581,15.556129 L50.0872258,13.2129032 L59.7574194,13.2129032 C60.48,13.2129032 61.0807742,12.612129 61.0807742,11.8916129 L61.0807742,7.38683871 C61.0807742,6.66632258 60.48,6.06554839 59.7574194,6.06554839 L43.0616774,6.06554839 Z M45.2830968,17.8972903 L45.5225806,14.3545806 L43.0616774,14.3545806 C41.6805161,14.3545806 40.5388387,13.2129032 40.5388387,11.8317419 L40.5388387,7.32696774 C40.5388387,5.94580645 41.6805161,4.80412903 43.0616774,4.80412903 L59.7574194,4.80412903 C61.1406452,4.80412903 62.2823226,5.94580645 62.2823226,7.32696774 L62.2823226,11.8317419 C62.2823226,13.2129032 61.1406452,14.3545806 59.7574194,14.3545806 L50.4485161,14.3545806 L45.2830968,17.8972903 Z" id="Fill-16" fill="#CCCCCC" mask="url(#mask-2)"></path>
                <path d="M45.1041032,9.90926452 C45.1041032,10.5079742 45.5851355,10.991071 46.1817806,10.991071 C46.7804903,10.9931355 47.2656516,10.5100387 47.2656516,9.91132903 L47.2656516,9.90926452 C47.2677161,9.31261935 46.7825548,8.82745806 46.1859097,8.82745806 C45.5892645,8.82745806 45.1041032,9.30849032 45.1041032,9.9072 L45.1041032,9.90926452 Z" id="Fill-17" fill="#CCCCCC" mask="url(#mask-2)"></path>
                <path d="M50.5094194,9.90926452 C50.5094194,10.5079742 50.9925161,10.991071 51.5891613,10.991071 C52.1858065,10.991071 52.6709677,10.5079742 52.6709677,9.90926452 C52.6730323,9.31261935 52.187871,8.82745806 51.5912258,8.82745806 C50.9945806,8.82745806 50.5094194,9.30849032 50.5094194,9.9072 L50.5094194,9.90926452 Z" id="Fill-18" fill="#CCCCCC" mask="url(#mask-2)"></path>
                <path d="M55.914529,9.90926452 C55.914529,10.5079742 56.3976258,10.991071 56.994271,10.991071 C57.5909161,10.991071 58.0760774,10.5079742 58.0760774,9.90926452 C58.0760774,9.31261935 57.5909161,8.82952258 56.994271,8.82952258 C56.3976258,8.82952258 55.914529,9.31261935 55.914529,9.90926452" id="Fill-19" fill="#CCCCCC" mask="url(#mask-2)"></path>
            </g>
        </g>
    </g>
</svg>